<svg xmlns="http://www.w3.org/2000/svg" viewBox="0 0 512 512"><!--!Font Awesome Free 6.7.2 by @fontawesome - https://fontawesome.com License - https://fontawesome.com/license/free Copyright 2024 Fonticons, Inc.--><path fill="#38bdf8" d="M416 221.3l-90.8-90.8c-4.2-4.2-10-6.5-16-6.5H96c-17.7 0-32 14.3-32 32v384c0 17.7 14.3 32 32 32h320c17.7 0 32-14.3 32-32V237.3c0-6-2.3-11.8-6.5-16zM296 148v68c0 6.6 5.4 12 12 12h68l-80-80zM128 480V128h152v96c0 17.7 14.3 32 32 32h96v224H128zM368 368c0 8.8-7.2 16-16 16H160c-8.8 0-16-7.2-16-16s7.2-16 16-16h192c8.8 0 16 7.2 16 16zm0-96c0 8.8-7.2 16-16 16H160c-8.8 0-16-7.2-16-16s7.2-16 16-16h192c8.8 0 16 7.2 16 16z"/></svg>
